<svg width="128" height="128" viewBox="0 0 128 128" fill="none" xmlns="http://www.w3.org/2000/svg">
<path d="M0 0H128V128H0V0Z" fill="#181818"/>
<path d="M14.4 71V57H21.02C22.5667 57 23.9267 57.2867 25.1 57.86C26.2733 58.4333 27.1867 59.24 27.84 60.28C28.5067 61.32 28.84 62.56 28.84 64C28.84 65.4267 28.5067 66.6667 27.84 67.72C27.1867 68.76 26.2733 69.5667 25.1 70.14C23.9267 70.7133 22.5667 71 21.02 71H14.4ZM18.36 67.84H20.86C21.66 67.84 22.3533 67.6933 22.94 67.4C23.54 67.0933 24.0067 66.6533 24.34 66.08C24.6733 65.4933 24.84 64.8 24.84 64C24.84 63.1867 24.6733 62.4933 24.34 61.92C24.0067 61.3467 23.54 60.9133 22.94 60.62C22.3533 60.3133 21.66 60.16 20.86 60.16H18.36V67.84Z" fill="white"/>
<path d="M37.3634 71V68.98L37.1034 68.48V64.76C37.1034 64.16 36.9168 63.7 36.5434 63.38C36.1834 63.0467 35.6034 62.88 34.8034 62.88C34.2834 62.88 33.7568 62.9667 33.2234 63.14C32.6901 63.3 32.2368 63.5267 31.8634 63.82L30.5834 61.24C31.1968 60.84 31.9301 60.5333 32.7834 60.32C33.6501 60.0933 34.5101 59.98 35.3634 59.98C37.1234 59.98 38.4834 60.3867 39.4434 61.2C40.4168 62 40.9034 63.26 40.9034 64.98V71H37.3634ZM34.1634 71.18C33.2968 71.18 32.5634 71.0333 31.9634 70.74C31.3634 70.4467 30.9034 70.0467 30.5834 69.54C30.2768 69.0333 30.1234 68.4667 30.1234 67.84C30.1234 67.1733 30.2901 66.6 30.6234 66.12C30.9701 65.6267 31.4968 65.2533 32.2034 65C32.9101 64.7333 33.8234 64.6 34.9434 64.6H37.5034V66.58H35.4634C34.8501 66.58 34.4168 66.68 34.1634 66.88C33.9234 67.08 33.8034 67.3467 33.8034 67.68C33.8034 68.0133 33.9301 68.28 34.1834 68.48C34.4368 68.68 34.7834 68.78 35.2234 68.78C35.6368 68.78 36.0101 68.68 36.3434 68.48C36.6901 68.2667 36.9434 67.9467 37.1034 67.52L37.6234 68.92C37.4234 69.6667 37.0301 70.2333 36.4434 70.62C35.8701 70.9933 35.1101 71.18 34.1634 71.18Z" fill="white"/>
<path d="M43.302 71V60.16H47.102V71H43.302ZM45.202 58.96C44.5087 58.96 43.9487 58.7667 43.522 58.38C43.0954 57.9933 42.882 57.5133 42.882 56.94C42.882 56.3667 43.0954 55.8867 43.522 55.5C43.9487 55.1133 44.5087 54.92 45.202 54.92C45.8954 54.92 46.4554 55.1067 46.882 55.48C47.3087 55.84 47.522 56.3067 47.522 56.88C47.522 57.48 47.3087 57.98 46.882 58.38C46.4687 58.7667 45.9087 58.96 45.202 58.96Z" fill="white"/>
<path d="M49.5716 71V56.16H53.3716V71H49.5716Z" fill="white"/>
<path d="M57.7011 75.06C57.1278 75.06 56.5478 74.9667 55.9611 74.78C55.3878 74.6067 54.9211 74.3733 54.5611 74.08L55.8811 71.42C56.1078 71.62 56.3678 71.7733 56.6611 71.88C56.9678 72 57.2678 72.06 57.5611 72.06C57.9744 72.06 58.3011 71.9667 58.5411 71.78C58.7811 71.5933 58.9878 71.3 59.1611 70.9L59.6611 69.64L59.9611 69.26L63.6411 60.16H67.2611L62.5811 71.44C62.2078 72.3733 61.7744 73.1 61.2811 73.62C60.8011 74.1533 60.2611 74.5267 59.6611 74.74C59.0744 74.9533 58.4211 75.06 57.7011 75.06ZM59.1811 71.46L54.4011 60.16H58.3011L61.8211 68.92L59.1811 71.46Z" fill="white"/>
<path d="M73.3044 71.28C72.1577 71.28 71.051 71.14 69.9844 70.86C68.931 70.5667 68.071 70.1933 67.4044 69.74L68.7044 66.82C69.331 67.22 70.051 67.5533 70.8644 67.82C71.691 68.0733 72.511 68.2 73.3244 68.2C73.871 68.2 74.311 68.1533 74.6444 68.06C74.9777 67.9533 75.2177 67.82 75.3644 67.66C75.5244 67.4867 75.6044 67.2867 75.6044 67.06C75.6044 66.74 75.4577 66.4867 75.1644 66.3C74.871 66.1133 74.491 65.96 74.0244 65.84C73.5577 65.72 73.0377 65.6 72.4644 65.48C71.9044 65.36 71.3377 65.2067 70.7644 65.02C70.2044 64.8333 69.691 64.5933 69.2244 64.3C68.7577 63.9933 68.3777 63.6 68.0844 63.12C67.791 62.6267 67.6444 62.0067 67.6444 61.26C67.6444 60.42 67.871 59.66 68.3244 58.98C68.791 58.3 69.4844 57.7533 70.4044 57.34C71.3244 56.9267 72.471 56.72 73.8444 56.72C74.7644 56.72 75.6644 56.8267 76.5444 57.04C77.4377 57.24 78.231 57.54 78.9244 57.94L77.7044 60.88C77.0377 60.52 76.3777 60.2533 75.7244 60.08C75.071 59.8933 74.4377 59.8 73.8244 59.8C73.2777 59.8 72.8377 59.86 72.5044 59.98C72.171 60.0867 71.931 60.2333 71.7844 60.42C71.6377 60.6067 71.5644 60.82 71.5644 61.06C71.5644 61.3667 71.7044 61.6133 71.9844 61.8C72.2777 61.9733 72.6577 62.12 73.1244 62.24C73.6044 62.3467 74.1244 62.46 74.6844 62.58C75.2577 62.7 75.8244 62.8533 76.3844 63.04C76.9577 63.2133 77.4777 63.4533 77.9444 63.76C78.411 64.0533 78.7844 64.4467 79.0644 64.94C79.3577 65.42 79.5044 66.0267 79.5044 66.76C79.5044 67.5733 79.271 68.3267 78.8044 69.02C78.351 69.7 77.6644 70.2467 76.7444 70.66C75.8377 71.0733 74.691 71.28 73.3044 71.28Z" fill="white"/>
<path d="M87.9736 71.18C87.0536 71.18 86.2669 70.98 85.6136 70.58C84.9603 70.1667 84.4603 69.5533 84.1136 68.74C83.7803 67.9133 83.6136 66.86 83.6136 65.58C83.6136 64.2867 83.7736 63.2333 84.0936 62.42C84.4136 61.5933 84.8936 60.98 85.5336 60.58C86.1869 60.18 87.0003 59.98 87.9736 59.98C88.9603 59.98 89.8536 60.2133 90.6536 60.68C91.4669 61.1333 92.1069 61.78 92.5736 62.62C93.0536 63.4467 93.2936 64.4333 93.2936 65.58C93.2936 66.7267 93.0536 67.72 92.5736 68.56C92.1069 69.4 91.4669 70.0467 90.6536 70.5C89.8536 70.9533 88.9603 71.18 87.9736 71.18ZM81.1536 74.88V60.16H84.7736V62L84.7536 65.58L84.9536 69.18V74.88H81.1536ZM87.1736 68.16C87.6003 68.16 87.9803 68.06 88.3136 67.86C88.6603 67.66 88.9336 67.3667 89.1336 66.98C89.3469 66.5933 89.4536 66.1267 89.4536 65.58C89.4536 65.0333 89.3469 64.5667 89.1336 64.18C88.9336 63.7933 88.6603 63.5 88.3136 63.3C87.9803 63.1 87.6003 63 87.1736 63C86.7469 63 86.3603 63.1 86.0136 63.3C85.6803 63.5 85.4069 63.7933 85.1936 64.18C84.9936 64.5667 84.8936 65.0333 84.8936 65.58C84.8936 66.1267 84.9936 66.5933 85.1936 66.98C85.4069 67.3667 85.6803 67.66 86.0136 67.86C86.3603 68.06 86.7469 68.16 87.1736 68.16Z" fill="white"/>
<path d="M95.0598 71V60.16H98.8598V71H95.0598ZM96.9598 58.96C96.2665 58.96 95.7065 58.7667 95.2798 58.38C94.8532 57.9933 94.6398 57.5133 94.6398 56.94C94.6398 56.3667 94.8532 55.8867 95.2798 55.5C95.7065 55.1133 96.2665 54.92 96.9598 54.92C97.6532 54.92 98.2132 55.1067 98.6398 55.48C99.0665 55.84 99.2798 56.3067 99.2798 56.88C99.2798 57.48 99.0665 57.98 98.6398 58.38C98.2265 58.7667 97.6665 58.96 96.9598 58.96Z" fill="white"/>
<path d="M108.389 59.98C109.229 59.98 109.989 60.1533 110.669 60.5C111.349 60.8333 111.883 61.3533 112.269 62.06C112.669 62.7667 112.869 63.68 112.869 64.8V71H109.069V65.42C109.069 64.6467 108.909 64.0867 108.589 63.74C108.283 63.38 107.849 63.2 107.289 63.2C106.889 63.2 106.523 63.2933 106.189 63.48C105.856 63.6533 105.596 63.9267 105.409 64.3C105.223 64.6733 105.129 65.16 105.129 65.76V71H101.329V60.16H104.949V63.24L104.249 62.34C104.663 61.5533 105.229 60.9667 105.949 60.58C106.669 60.18 107.483 59.98 108.389 59.98Z" fill="white"/>
</svg>
