<svg width="203" height="44" viewBox="0 0 203 44" fill="none" xmlns="http://www.w3.org/2000/svg">
<g id="DailySpinLogo">
<g id="Logo">
<g id="Group">
<path id="Vector" d="M42.667 2.8877C52.8642 2.88787 61.1338 11.2192 61.1338 21.5C61.1338 31.7808 52.8642 40.1121 42.667 40.1123C32.4696 40.1123 24.2002 31.7809 24.2002 21.5C24.2002 11.2191 32.4696 2.8877 42.667 2.8877Z" fill="black" stroke="white" stroke-width="0.4"/>
<path id="Vector_2" d="M42.6667 26.875C45.6122 26.875 48 24.4685 48 21.5C48 18.5315 45.6122 16.125 42.6667 16.125C39.7212 16.125 37.3333 18.5315 37.3333 21.5C37.3333 24.4685 39.7212 26.875 42.6667 26.875Z" fill="white"/>
<path id="Vector_3" d="M42.6667 22.3063C43.1085 22.3063 43.4667 21.9453 43.4667 21.5C43.4667 21.0547 43.1085 20.6938 42.6667 20.6938C42.2248 20.6938 41.8667 21.0547 41.8667 21.5C41.8667 21.9453 42.2248 22.3063 42.6667 22.3063Z" fill="black"/>
</g>
<g id="Group_2">
<g id="Group_3">
<path id="Vector_4" d="M40 1.34375H2.66668C1.9303 1.34375 1.33334 1.94537 1.33334 2.6875V40.3125C1.33334 41.0546 1.9303 41.6562 2.66668 41.6562H40C40.7364 41.6562 41.3333 41.0546 41.3333 40.3125V2.6875C41.3333 1.94537 40.7364 1.34375 40 1.34375Z" fill="white" stroke="black" stroke-width="0.5"/>
<path id="Vector_5" d="M40 1.34375H2.66668C1.9303 1.34375 1.33334 1.94537 1.33334 2.6875V8.0625C1.33334 8.80463 1.9303 9.40625 2.66668 9.40625H40C40.7364 9.40625 41.3333 8.80463 41.3333 8.0625V2.6875C41.3333 1.94537 40.7364 1.34375 40 1.34375Z" fill="#D5651B" stroke="black" stroke-width="0.5"/>
</g>
<g id="Group_4">
<path id="Vector_6" d="M10.6667 13.4375H8.00002C7.26364 13.4375 6.66669 14.0391 6.66669 14.7812V17.4688C6.66669 18.2109 7.26364 18.8125 8.00002 18.8125H10.6667C11.4031 18.8125 12 18.2109 12 17.4688V14.7812C12 14.0391 11.4031 13.4375 10.6667 13.4375Z" stroke="black" stroke-width="0.5"/>
<path id="Vector_7" d="M18.6667 13.4375H16C15.2636 13.4375 14.6667 14.0391 14.6667 14.7812V17.4688C14.6667 18.2109 15.2636 18.8125 16 18.8125H18.6667C19.4031 18.8125 20 18.2109 20 17.4688V14.7812C20 14.0391 19.4031 13.4375 18.6667 13.4375Z" stroke="black" stroke-width="0.5"/>
<path id="Vector_8" d="M26.6667 13.4375H24C23.2636 13.4375 22.6667 14.0391 22.6667 14.7812V17.4688C22.6667 18.2109 23.2636 18.8125 24 18.8125H26.6667C27.4031 18.8125 28 18.2109 28 17.4688V14.7812C28 14.0391 27.4031 13.4375 26.6667 13.4375Z" stroke="black" stroke-width="0.5"/>
<path id="Vector_9" d="M34.6667 13.4375H32C31.2636 13.4375 30.6667 14.0391 30.6667 14.7812V17.4688C30.6667 18.2109 31.2636 18.8125 32 18.8125H34.6667C35.4031 18.8125 36 18.2109 36 17.4688V14.7812C36 14.0391 35.4031 13.4375 34.6667 13.4375Z" stroke="black" stroke-width="0.5"/>
<path id="Vector_10" d="M10.6667 21.5H8.00002C7.26364 21.5 6.66669 22.1016 6.66669 22.8438V25.5312C6.66669 26.2734 7.26364 26.875 8.00002 26.875H10.6667C11.4031 26.875 12 26.2734 12 25.5312V22.8438C12 22.1016 11.4031 21.5 10.6667 21.5Z" stroke="black" stroke-width="0.5"/>
<path id="Vector_11" d="M18.6667 21.5H16C15.2636 21.5 14.6667 22.1016 14.6667 22.8438V25.5312C14.6667 26.2734 15.2636 26.875 16 26.875H18.6667C19.4031 26.875 20 26.2734 20 25.5312V22.8438C20 22.1016 19.4031 21.5 18.6667 21.5Z" fill="#D5651B" stroke="black" stroke-width="0.5"/>
<path id="Vector_12" d="M26.6667 21.5H24C23.2636 21.5 22.6667 22.1016 22.6667 22.8438V25.5312C22.6667 26.2734 23.2636 26.875 24 26.875H26.6667C27.4031 26.875 28 26.2734 28 25.5312V22.8438C28 22.1016 27.4031 21.5 26.6667 21.5Z" stroke="black" stroke-width="0.5"/>
<path id="Vector_13" d="M34.6667 21.5H32C31.2636 21.5 30.6667 22.1016 30.6667 22.8438V25.5312C30.6667 26.2734 31.2636 26.875 32 26.875H34.6667C35.4031 26.875 36 26.2734 36 25.5312V22.8438C36 22.1016 35.4031 21.5 34.6667 21.5Z" stroke="black" stroke-width="0.5"/>
<path id="Vector_14" d="M10.6667 29.5625H8.00002C7.26364 29.5625 6.66669 30.1641 6.66669 30.9062V33.5938C6.66669 34.3359 7.26364 34.9375 8.00002 34.9375H10.6667C11.4031 34.9375 12 34.3359 12 33.5938V30.9062C12 30.1641 11.4031 29.5625 10.6667 29.5625Z" stroke="black" stroke-width="0.5"/>
<path id="Vector_15" d="M18.6667 29.5625H16C15.2636 29.5625 14.6667 30.1641 14.6667 30.9062V33.5938C14.6667 34.3359 15.2636 34.9375 16 34.9375H18.6667C19.4031 34.9375 20 34.3359 20 33.5938V30.9062C20 30.1641 19.4031 29.5625 18.6667 29.5625Z" stroke="black" stroke-width="0.5"/>
<path id="Vector_16" d="M26.6667 29.5625H24C23.2636 29.5625 22.6667 30.1641 22.6667 30.9062V33.5938C22.6667 34.3359 23.2636 34.9375 24 34.9375H26.6667C27.4031 34.9375 28 34.3359 28 33.5938V30.9062C28 30.1641 27.4031 29.5625 26.6667 29.5625Z" stroke="black" stroke-width="0.5"/>
</g>
</g>
</g>
<g id="DailySpin">
<path id="Vector_17" d="M202.189 35.16C202.189 35.6667 202.016 36.1067 201.669 36.48C201.323 36.8267 200.896 37 200.389 37H199.269C198.763 37 198.336 36.8267 197.989 36.48C197.643 36.1067 197.469 35.6667 197.469 35.16V21.6C197.469 21.44 197.403 21.3067 197.269 21.2C197.163 21.0933 197.043 21.04 196.909 21.04H193.029C192.896 21.04 192.763 21.0933 192.629 21.2C192.523 21.3067 192.469 21.44 192.469 21.6V35.16C192.469 35.6667 192.296 36.1067 191.949 36.48C191.603 36.8267 191.176 37 190.669 37H189.549C189.043 37 188.603 36.8267 188.229 36.48C187.883 36.1067 187.709 35.6667 187.709 35.16V20.76C187.709 19.9333 187.909 19.1867 188.309 18.52C188.736 17.8267 189.283 17.28 189.949 16.88C190.616 16.48 191.363 16.28 192.189 16.28H197.749C198.576 16.28 199.323 16.48 199.989 16.88C200.656 17.28 201.189 17.8267 201.589 18.52C201.989 19.1867 202.189 19.9333 202.189 20.76V35.16Z" fill="#D5651B"/>
<path id="Vector_18" d="M184.492 12.52C184.492 13.3467 184.185 14.0667 183.572 14.68C182.985 15.2667 182.292 15.56 181.492 15.56C180.665 15.56 179.945 15.2667 179.332 14.68C178.745 14.0667 178.452 13.3467 178.452 12.52C178.452 11.72 178.745 11.0267 179.332 10.44C179.945 9.82667 180.665 9.52 181.492 9.52C182.292 9.52 182.985 9.82667 183.572 10.44C184.185 11.0267 184.492 11.72 184.492 12.52ZM183.852 35.16C183.852 35.6667 183.665 36.1067 183.292 36.48C182.945 36.8267 182.518 37 182.012 37H180.932C180.425 37 179.985 36.8267 179.612 36.48C179.265 36.1067 179.092 35.6667 179.092 35.16V18.56C179.092 18.0533 179.265 17.6267 179.612 17.28C179.985 16.9067 180.425 16.72 180.932 16.72H182.012C182.518 16.72 182.945 16.9067 183.292 17.28C183.665 17.6267 183.852 18.0533 183.852 18.56V35.16Z" fill="#D5651B"/>
<path id="Vector_19" d="M175.197 32.52C175.197 33.7733 174.757 34.84 173.877 35.72C173.024 36.5733 171.984 37 170.757 37H166.037C165.904 37 165.771 37.0533 165.637 37.16C165.531 37.2667 165.477 37.3867 165.477 37.52V41.56C165.477 42.0667 165.304 42.4933 164.957 42.84C164.611 43.2133 164.184 43.4 163.677 43.4H162.557C162.051 43.4 161.611 43.2133 161.237 42.84C160.891 42.4933 160.717 42.0667 160.717 41.56V20.76C160.717 19.9333 160.917 19.1867 161.317 18.52C161.744 17.8267 162.291 17.28 162.957 16.88C163.624 16.48 164.371 16.28 165.197 16.28H170.757C171.584 16.28 172.331 16.48 172.997 16.88C173.664 17.28 174.197 17.8267 174.597 18.52C174.997 19.1867 175.197 19.9333 175.197 20.76V32.52ZM170.477 31.76V21.6C170.477 21.44 170.411 21.3067 170.277 21.2C170.171 21.0933 170.051 21.04 169.917 21.04H166.037C165.904 21.04 165.771 21.0933 165.637 21.2C165.531 21.3067 165.477 21.44 165.477 21.6V31.76C165.477 31.8933 165.531 32.0133 165.637 32.12C165.771 32.2267 165.904 32.28 166.037 32.28H169.917C170.051 32.28 170.171 32.2267 170.277 32.12C170.411 32.0133 170.477 31.8933 170.477 31.76Z" fill="#D5651B"/>
<path id="Vector_20" d="M157.475 31.72C157.475 32.68 157.235 33.56 156.755 34.36C156.275 35.16 155.635 35.8 154.835 36.28C154.035 36.76 153.155 37 152.195 37H144.515C143.555 37 142.661 36.76 141.835 36.28C141.035 35.8 140.395 35.16 139.915 34.36C139.435 33.56 139.195 32.68 139.195 31.72V30.52C139.195 30.0133 139.368 29.5867 139.715 29.24C140.088 28.8667 140.528 28.68 141.035 28.68H142.155C142.635 28.68 143.048 28.8667 143.395 29.24C143.768 29.5867 143.955 30.0133 143.955 30.52V31.72C143.955 31.8533 144.008 31.9867 144.115 32.12C144.248 32.2267 144.381 32.28 144.515 32.28H152.195C152.328 32.28 152.448 32.2267 152.555 32.12C152.661 31.9867 152.715 31.8533 152.715 31.72V28.08C152.715 27.7867 152.581 27.6 152.315 27.52L142.715 23.92C141.648 23.5467 140.795 22.8933 140.155 21.96C139.515 21.0267 139.195 20 139.195 18.88V15.28C139.195 14.2933 139.435 13.4 139.915 12.6C140.395 11.8 141.035 11.16 141.835 10.68C142.661 10.2 143.555 9.95999 144.515 9.95999H152.195C153.155 9.95999 154.035 10.2 154.835 10.68C155.635 11.16 156.275 11.8 156.755 12.6C157.235 13.4 157.475 14.2933 157.475 15.28V16.36C157.475 16.8667 157.288 17.2933 156.915 17.64C156.568 17.9867 156.141 18.16 155.635 18.16H154.555C154.048 18.16 153.608 17.9867 153.235 17.64C152.888 17.2933 152.715 16.8667 152.715 16.36V15.28C152.715 14.9067 152.541 14.72 152.195 14.72H144.515C144.381 14.72 144.248 14.7733 144.115 14.88C144.008 14.9867 143.955 15.12 143.955 15.28V18.88C143.955 19.2 144.088 19.4 144.355 19.48L153.995 23.08C155.035 23.4533 155.875 24.1067 156.515 25.04C157.155 25.9733 157.475 26.9867 157.475 28.08V31.72Z" fill="#D5651B"/>
<path id="Vector_21" d="M135.875 18.6L130.395 39.64C130.102 40.7333 129.502 41.6267 128.595 42.32C127.688 43.04 126.648 43.4 125.475 43.4H124.355C123.848 43.4 123.408 43.2133 123.035 42.84C122.688 42.4933 122.515 42.0667 122.515 41.56V40.44C122.515 39.9333 122.688 39.5067 123.035 39.16C123.408 38.8133 123.848 38.64 124.355 38.64H125.475C125.635 38.64 125.742 38.56 125.795 38.4L126.675 34.96C126.755 34.7467 126.755 34.52 126.675 34.28L122.595 18.6C122.382 17.9867 122.488 17.4667 122.915 17.04C123.262 16.5333 123.728 16.28 124.315 16.28H125.475C125.902 16.28 126.275 16.4133 126.595 16.68C126.915 16.92 127.128 17.2533 127.235 17.68L129.035 24.52C129.062 24.6267 129.128 24.68 129.235 24.68C129.342 24.68 129.408 24.6267 129.435 24.52L131.235 17.68C131.368 17.2533 131.582 16.92 131.875 16.68C132.195 16.4133 132.555 16.28 132.955 16.28H134.115C134.728 16.28 135.208 16.5333 135.555 17.04C135.955 17.4667 136.062 17.9867 135.875 18.6Z" fill="#F5EAEA"/>
<path id="Vector_22" d="M120.927 35.16C120.927 35.6667 120.74 36.1067 120.367 36.48C120.02 36.8267 119.594 37 119.087 37H118.087C116.86 37 115.807 36.5733 114.927 35.72C114.047 34.84 113.607 33.7733 113.607 32.52V11.8C113.607 11.2667 113.78 10.8267 114.127 10.48C114.5 10.1333 114.94 9.95999 115.447 9.95999H116.567C117.074 9.95999 117.5 10.1333 117.847 10.48C118.22 10.8267 118.407 11.2667 118.407 11.8V31.76C118.407 32.1067 118.567 32.28 118.887 32.28H119.087C119.594 32.28 120.02 32.4533 120.367 32.8C120.74 33.1467 120.927 33.5867 120.927 34.12V35.16Z" fill="#F5EAEA"/>
<path id="Vector_23" d="M110.429 12.52C110.429 13.3467 110.122 14.0667 109.509 14.68C108.922 15.2667 108.229 15.56 107.429 15.56C106.602 15.56 105.882 15.2667 105.269 14.68C104.682 14.0667 104.389 13.3467 104.389 12.52C104.389 11.72 104.682 11.0267 105.269 10.44C105.882 9.82667 106.602 9.52 107.429 9.52C108.229 9.52 108.922 9.82667 109.509 10.44C110.122 11.0267 110.429 11.72 110.429 12.52ZM109.789 35.16C109.789 35.6667 109.602 36.1067 109.229 36.48C108.882 36.8267 108.456 37 107.949 37H106.869C106.362 37 105.922 36.8267 105.549 36.48C105.202 36.1067 105.029 35.6667 105.029 35.16V18.56C105.029 18.0533 105.202 17.6267 105.549 17.28C105.922 16.9067 106.362 16.72 106.869 16.72H107.949C108.456 16.72 108.882 16.9067 109.229 17.28C109.602 17.6267 109.789 18.0533 109.789 18.56V35.16Z" fill="#F5EAEA"/>
<path id="Vector_24" d="M101.135 32.52C101.135 33.7733 100.695 34.84 99.8147 35.72C98.9614 36.5733 97.9214 37 96.6947 37H91.1347C89.908 37 88.8547 36.5733 87.9747 35.72C87.0947 34.84 86.6547 33.7733 86.6547 32.52V28.16C86.6547 27.3333 86.8547 26.6 87.2547 25.96C87.6814 25.2933 88.228 24.76 88.8947 24.36C89.5614 23.96 90.308 23.76 91.1347 23.76H95.8547C95.988 23.76 96.108 23.7067 96.2147 23.6C96.348 23.4933 96.4147 23.36 96.4147 23.2V21.6C96.4147 21.44 96.348 21.3067 96.2147 21.2C96.108 21.0933 95.988 21.04 95.8547 21.04H91.1347C90.628 21.04 90.188 20.8667 89.8147 20.52C89.468 20.1733 89.2947 19.7467 89.2947 19.24V18.16C89.2947 17.6267 89.468 17.1867 89.8147 16.84C90.188 16.4667 90.628 16.28 91.1347 16.28H96.6947C97.5214 16.28 98.268 16.48 98.9347 16.88C99.6014 17.28 100.135 17.8267 100.535 18.52C100.935 19.1867 101.135 19.9333 101.135 20.76V32.52ZM96.4147 31.76V29C96.4147 28.8667 96.348 28.7467 96.2147 28.64C96.108 28.5333 95.988 28.48 95.8547 28.48H91.9747C91.8414 28.48 91.708 28.5333 91.5747 28.64C91.468 28.7467 91.4147 28.8667 91.4147 29V31.76C91.4147 31.8933 91.468 32.0133 91.5747 32.12C91.708 32.2267 91.8414 32.28 91.9747 32.28H95.8547C95.988 32.28 96.108 32.2267 96.2147 32.12C96.348 32.0133 96.4147 31.8933 96.4147 31.76Z" fill="#F5EAEA"/>
<path id="Vector_25" d="M83.4 31.72C83.4 32.68 83.16 33.56 82.68 34.36C82.2 35.16 81.56 35.8 80.76 36.28C79.96 36.76 79.08 37 78.12 37H67.44C66.9333 37 66.4933 36.8267 66.12 36.48C65.7733 36.1067 65.6 35.6667 65.6 35.16V11.8C65.6 11.2667 65.7733 10.8267 66.12 10.48C66.4933 10.1333 66.9333 9.95999 67.44 9.95999H78.12C79.08 9.95999 79.96 10.2 80.76 10.68C81.56 11.16 82.2 11.8 82.68 12.6C83.16 13.4 83.4 14.2933 83.4 15.28V31.72ZM78.64 31.72V15.28C78.64 14.9067 78.4667 14.72 78.12 14.72H70.92C70.5733 14.72 70.4 14.8933 70.4 15.24V31.76C70.4 32.1067 70.5733 32.28 70.92 32.28H78.12C78.2533 32.28 78.3733 32.2267 78.48 32.12C78.5867 31.9867 78.64 31.8533 78.64 31.72Z" fill="#F5EAEA"/>
</g>
</g>
</svg>
